<svg xmlns="http://www.w3.org/2000/svg" width="495" height="180" viewBox="0 0 495 180" role="img" aria-labelledby="t d">
<title id="t">Most used languages</title><desc id="d">Top languages: TypeScript, Python, JavaScript, HTML, CSS, Java.</desc>
<defs><linearGradient id="bg" x1="0" y1="0" x2="1" y2="1"><stop offset="0" stop-color="#0d1117"/><stop offset="1" stop-color="#101826"/></linearGradient>
<linearGradient id="bar" x1="0" y1="0" x2="1" y2="0"><stop offset="0" stop-color="#58a6ff"/><stop offset="0.5" stop-color="#a371f7"/><stop offset="1" stop-color="#3fb950"/></linearGradient></defs>
<rect x="0.5" y="0.5" rx="8" width="494" height="179" fill="url(#bg)" stroke="#30363d"/>
<rect x="1" y="1" rx="1.5" width="493" height="3" fill="url(#bar)" opacity=".85"/>
<style>text{font-family:'Segoe UI', Ubuntu, 'Helvetica Neue', Arial, sans-serif}.h{font-size:16px;font-weight:600;fill:#58a6ff}.l{font-size:13px;fill:#c9d1d9}.v{font-size:13px;font-weight:600;fill:#c9d1d9}.m{font-size:11px;fill:#8b949e}.big{font-size:28px;font-weight:700;fill:#c9d1d9}</style>
<text x="24" y="34" class="h">Most used languages</text>
<clipPath id="bar"><rect x="24" y="50" width="447" height="10" rx="5"/></clipPath><g clip-path="url(#bar)">
<rect x="24.0" y="50" width="347.8" height="10" fill="#3178c6"/>
<rect x="371.8" y="50" width="42.3" height="10" fill="#3572A5"/>
<rect x="414.1" y="50" width="20.2" height="10" fill="#f1e05a"/>
<rect x="434.3" y="50" width="9.6" height="10" fill="#e34c26"/>
<rect x="443.9" y="50" width="9.2" height="10" fill="#663399"/>
<rect x="453.1" y="50" width="8.6" height="10" fill="#b07219"/>
</g>
<circle cx="29" cy="94" r="5" fill="#3178c6"/><text x="42" y="98" class="l">TypeScript</text><text x="239" y="98" class="v" text-anchor="end">77.8%</text>
<circle cx="269" cy="94" r="5" fill="#3572A5"/><text x="282" y="98" class="l">Python</text><text x="479" y="98" class="v" text-anchor="end">9.5%</text>
<circle cx="29" cy="122" r="5" fill="#f1e05a"/><text x="42" y="126" class="l">JavaScript</text><text x="239" y="126" class="v" text-anchor="end">4.5%</text>
<circle cx="269" cy="122" r="5" fill="#e34c26"/><text x="282" y="126" class="l">HTML</text><text x="479" y="126" class="v" text-anchor="end">2.1%</text>
<circle cx="29" cy="150" r="5" fill="#663399"/><text x="42" y="154" class="l">CSS</text><text x="239" y="154" class="v" text-anchor="end">2.1%</text>
<circle cx="269" cy="150" r="5" fill="#b07219"/><text x="282" y="154" class="l">Java</text><text x="479" y="154" class="v" text-anchor="end">1.9%</text>
</svg>
